<svg width="24" height="24" viewBox="0 0 24 24" fill="none" xmlns="http://www.w3.org/2000/svg">
	<path opacity="0.3" fill-rule="evenodd" clip-rule="evenodd" d="M12 24C18.6274 24 24 18.6274 24 12C24 5.37258 18.6274 0 12 0C5.37258 0 0 5.37258 0 12C0 18.6274 5.37258 24 12 24ZM12 14.0505C13.1327 14.0505 14.0509 13.1322 14.0509 11.9996C14.0509 10.8669 13.1327 9.94864 12 9.94864C10.8673 9.94864 9.94908 10.8669 9.94908 11.9996C9.94908 13.1322 10.8673 14.0505 12 14.0505ZM17.8473 7.9641C18.0286 8.44183 18.1246 8.9477 18.1309 9.45865C18.1498 9.83698 18.1469 10.0622 18.141 10.5094C18.1367 10.8359 18.1309 11.2806 18.1309 11.9896V14.5314C18.1201 15.0419 18.0242 15.547 17.8473 16.0259C17.6827 16.434 17.4375 16.8047 17.1263 17.1159C16.8152 17.427 16.4445 17.6722 16.0364 17.8368C15.5574 18.0138 15.0523 18.1097 14.5418 18.1205H12H9.45818C8.94769 18.1097 8.44259 18.0138 7.96363 17.8368C7.55314 17.6819 7.181 17.44 6.87273 17.1277C6.56181 16.8162 6.31693 16.4452 6.15273 16.0368C5.97576 15.5579 5.8799 15.0528 5.86909 14.5423V12.0005V9.45865C5.88298 8.9475 5.98255 8.4423 6.16363 7.9641C6.31438 7.55148 6.55683 7.17847 6.87273 6.87319C7.18059 6.55782 7.55262 6.31228 7.96363 6.15319C8.44259 5.97623 8.94769 5.88037 9.45818 5.86956H12H14.5418C15.0566 5.88244 15.5656 5.98202 16.0473 6.1641C16.4571 6.32028 16.829 6.56202 17.1382 6.87319C17.4541 7.17847 17.6965 7.55148 17.8473 7.9641ZM10.2363 14.64C10.7584 14.9888 11.3721 15.175 12 15.175C12.8419 15.175 13.6494 14.8405 14.2447 14.2452C14.8401 13.6499 15.1745 12.8424 15.1745 12.0005C15.1745 11.3726 14.9884 10.7588 14.6395 10.2368C14.2907 9.71473 13.7949 9.30784 13.2148 9.06757C12.6348 8.82729 11.9965 8.76443 11.3807 8.88692C10.7649 9.00941 10.1992 9.31175 9.75525 9.75572C9.31129 10.1997 9.00894 10.7653 8.88645 11.3811C8.76396 11.9969 8.82683 12.6352 9.0671 13.2153C9.30737 13.7954 9.71426 14.2912 10.2363 14.64ZM14.8646 9.31052C14.9841 9.39561 15.1261 9.44336 15.2727 9.44774C15.3702 9.45064 15.4672 9.43432 15.5583 9.39971C15.6494 9.36509 15.7328 9.31285 15.8038 9.24599C15.8747 9.17912 15.9317 9.09893 15.9716 9.01001C16.0115 8.92109 16.0335 8.82517 16.0364 8.72774C16.0406 8.58111 16.0013 8.43651 15.9234 8.31222C15.8455 8.18794 15.7324 8.08954 15.5986 8.02948C15.4648 7.96941 15.3162 7.95037 15.1715 7.97476C15.0269 7.99915 14.8927 8.06588 14.786 8.16651C14.6792 8.26714 14.6047 8.39716 14.5719 8.54012C14.539 8.68309 14.5493 8.83258 14.6014 8.96971C14.6535 9.10684 14.7451 9.22544 14.8646 9.31052Z" fill="white" />
</svg>
