<svg width="117" height="21" viewBox="0 0 117 21" fill="none" xmlns="http://www.w3.org/2000/svg">
	<path d="M13.7275 20.55H8.20728L0 0.450001H6.25038L10.982 12.45L15.6844 0.450001H21.9347L13.7275 20.55Z" fill="white" />
	<path d="M38.9579 20.55H23.3903V0.450001H38.841V5.31H28.9981V8.28H38.0524V12.69H28.9981V15.69H38.9579V20.55Z" fill="white" />
	<path d="M56.9843 20.55H41.4168V0.450001H56.8675V5.31H47.0246V8.28H56.0789V12.69H47.0246V15.69H56.9843V20.55Z" fill="white" />
	<path d="M67.7089 0.450001C70.9022 0.450001 73.4822 1.37 75.4488 3.21C77.396 5.07 78.3696 7.5 78.3696 10.5C78.3696 13.5 77.396 15.92 75.4488 17.76C73.4822 19.62 70.9022 20.55 67.7089 20.55H59.4432V0.450001H67.7089ZM67.3 15.69C68.9161 15.69 70.2207 15.21 71.2138 14.25C72.2068 13.29 72.7033 12.04 72.7033 10.5C72.7033 8.96 72.2068 7.71 71.2138 6.75C70.2207 5.79 68.9161 5.31 67.3 5.31H65.051V15.69H67.3Z" fill="white" />
	<path d="M82.9437 14.52C83.8199 14.52 84.5501 14.83 85.1343 15.45C85.699 16.07 85.9813 16.8 85.9813 17.64C85.9813 18.52 85.699 19.25 85.1343 19.83C84.5501 20.41 83.8199 20.7 82.9437 20.7C82.0675 20.7 81.3471 20.41 80.7824 19.83C80.1982 19.25 79.9062 18.52 79.9062 17.64C79.9062 16.8 80.1982 16.07 80.7824 15.45C81.3471 14.83 82.0675 14.52 82.9437 14.52Z" fill="white" />
	<path d="M88.0516 20.55V0.450001H93.6594V20.55H88.0516Z" fill="white" />
	<path d="M106.456 0C109.416 0 111.918 1.01 113.962 3.03C115.987 5.07 117 7.56 117 10.5C117 13.44 115.987 15.92 113.962 17.94C111.918 19.98 109.416 21 106.456 21C103.496 21 101.004 19.98 98.979 17.94C96.9345 15.92 95.9123 13.44 95.9123 10.5C95.9123 7.56 96.9345 5.07 98.979 3.03C101.004 1.01 103.496 0 106.456 0ZM106.456 15.81C107.858 15.81 109.026 15.3 109.961 14.28C110.876 13.28 111.334 12.02 111.334 10.5C111.334 9 110.876 7.74 109.961 6.72C109.026 5.7 107.858 5.19 106.456 5.19C105.054 5.19 103.896 5.7 102.98 6.72C102.046 7.74 101.578 9 101.578 10.5C101.578 12.02 102.046 13.28 102.98 14.28C103.896 15.3 105.054 15.81 106.456 15.81Z" fill="white" />
</svg>
