<svg width="24" height="24" viewBox="0 0 24 24" fill="none" xmlns="http://www.w3.org/2000/svg">
	<path opacity="0.3" d="M12 0C5.36898 0 0 5.36898 0 12C0 18.631 5.36898 24 12 24C18.631 24 24 18.631 24 12C24 5.36898 18.631 0 12 0ZM17.9251 10.1176C17.9251 10.246 17.9251 10.3743 17.9251 10.4813C17.9251 14.2674 15.0374 18.6524 9.75401 18.6524C8.12834 18.6524 6.63102 18.1818 5.34759 17.369C5.5615 17.3904 5.79679 17.4118 6.03209 17.4118C7.37968 17.4118 8.62032 16.9626 9.60428 16.1925C8.34225 16.1711 7.29412 15.3369 6.93048 14.2032C7.1016 14.246 7.29412 14.246 7.46524 14.246C7.72193 14.246 7.97861 14.2032 8.2139 14.139C6.90909 13.8824 5.90374 12.7059 5.90374 11.3369C5.90374 11.3155 5.90374 11.3155 5.90374 11.2941C6.28877 11.508 6.73797 11.6364 7.20856 11.6578C6.4385 11.1444 5.92513 10.2674 5.92513 9.26203C5.92513 8.72727 6.07487 8.23529 6.31016 7.82888C7.72193 9.5615 9.83957 10.7166 12.2139 10.8235C12.1711 10.6096 12.1497 10.3957 12.1497 10.1604C12.1497 8.57754 13.4332 7.29412 15.016 7.29412C15.8503 7.29412 16.5775 7.63636 17.1123 8.19251C17.7754 8.06417 18.3743 7.82888 18.9305 7.48663C18.7166 8.14973 18.2674 8.72727 17.6684 9.06952C18.246 9.00535 18.8021 8.85562 19.3155 8.62032C18.9733 9.19786 18.4813 9.71123 17.9251 10.1176Z" fill="white" />
</svg>
