<svg width="24" height="24" viewBox="0 0 24 24" fill="none" xmlns="http://www.w3.org/2000/svg">
	<path opacity="0.3" fill-rule="evenodd" clip-rule="evenodd" d="M24 12C24 18.6274 18.6274 24 12 24C5.37258 24 0 18.6274 0 12C0 5.37258 5.37258 0 12 0C18.6274 0 24 5.37258 24 12ZM19.3755 8.43041C19.2869 8.10327 19.1143 7.80503 18.8746 7.56539C18.635 7.32575 18.3367 7.15307 18.0096 7.06454C16.812 6.73792 11.9919 6.73792 11.9919 6.73792C11.9919 6.73792 7.17175 6.74782 5.97414 7.07444C5.647 7.16296 5.34876 7.33564 5.10912 7.57529C4.86948 7.81493 4.6968 8.11317 4.60828 8.44031C4.24603 10.5683 4.10548 13.8107 4.61818 15.8536C4.7067 16.1807 4.87938 16.479 5.11902 16.7186C5.35866 16.9583 5.6569 17.1309 5.98404 17.2195C7.18165 17.5461 12.0018 17.5461 12.0018 17.5461C12.0018 17.5461 16.8219 17.5461 18.0195 17.2195C18.3466 17.1309 18.6449 16.9583 18.8845 16.7186C19.1242 16.479 19.2968 16.1807 19.3854 15.8536C19.7674 13.7226 19.8852 10.4822 19.3755 8.43041ZM10.4577 14.458L14.4563 12.142L10.4577 9.82593V14.458Z" fill="white" />
</svg>
